<?xml version="1.0" encoding="UTF-8"?>
<svg id="Layer_1" data-name="Layer 1" xmlns="http://www.w3.org/2000/svg" viewBox="0 0 55.34 44.16">
  <defs>
    <style>
      .cls-1 {
        fill: #231f20;
      }
    </style>
  </defs>
  <path class="cls-1" d="M55.17,8.49c-.69-10.22-4.82-9.14-8.87-1.36-1.37-1.61-2.34-6.98-5.1-6.7-1.68.17-2.87,3.79-3.66,5.01-.25.38.04.7-.88.51C36.35,4.15,32.98.09,31.35,0c-2.96-.16-3.99,4.48-5.51,6.33-.79,0-4.84-12.82-9.65.4l-2.57-5.1c-3.21-3.41-5.44,1.44-6.09,4.31C2.73-.33,1.24,5.18.51,10.14c-1.28,8.75-.11,16.34,2.9,24.54.91,2.47.67,2.34,1.03,4.87.65,4.68,3.18,4.71,2.71-.15.94.41,4.24.64,4.74.97.66.43.34,2.45,1.76,2.6,1.94.21,1.47-2.51,1.77-2.78.14-.13,1.95.39,2.54.41,6.46.24,15.59-.91,21.69-.14.24,1.98.22,4.02,1.93,3.66,1.43-.3,1.24-3.78,1.39-3.93.18-.18,3.55-.03,4.35-.58.69.04-.2,4.68,2.08,4.07,2.04-.55,1.93-5.04,2.21-6.54.17-.92,1-3.93,1.48-5.52,2.06-6.8,2.58-16.04,2.1-23.12Z"/>
</svg>