<?xml version="1.0" encoding="UTF-8"?>
<svg id="Layer_1" data-name="Layer 1" xmlns="http://www.w3.org/2000/svg" viewBox="0 0 59.38 58.15">
  <defs>
    <style>
      .cls-1 {
        fill: #231f20;
      }
    </style>
  </defs>
  <path class="cls-1" d="M58.88,28.31c-2.99-11.32-23.28-3.07-31.66-6.65-3.63-1.19-3.22-5.21-2.99-8.39.22-3.65-.65-6.58-2.26-8.71C14.9-4.32-2.02.19.2,14.42c1.43,6.97.34,15.41,2.72,21.73.75,2.2,1.97,4.1,2.19,6.39.3,4.09-.47,8.35.55,12.38.49,1.54.99,2.87,2.13,3.1.77-.04.79-2.12.77-4.69.15-2.59-.4-6.51.51-7.68,1.45-1.05,2.38,1.67,2.38,2.87.23,3.13-.34,8.09,1.54,9.5.82.47,1.43-.39,1.67-1.14.61-1.73.21-4.75.51-6.81.11-.86.54-1.64,1.4-1.88,1.42-.4,3.78.04,4.65.91.55.54.69,1.39.81,2.53.23,1.84.27,4.5,1.75,5.83.81.75,1.7.09,1.9-.84.58-1.74-.09-5.09.77-6.41.75-1.3,2.74-1.08,3.32.28.32.66.35,1.63.42,2.73.09,1.55.56,4.84,2.24,4.73,1.66-.85,1.28-4.09,1.49-5.8.04-1.41.48-2.77,1.88-3.3,1.59-.63,4.23-1.11,5.27-.48,1.44,1.13.67,3.35.89,4.98.02,1.37.53,3.95,1.87,4.08,2.56-.88.69-7.49,2.27-9.57.73-.54.8,1.82.87,3.76.07,1.95.4,3.82,1.27,5.24.72,1.28,2.09,1.82,2.7.11,1.2-3.25-.69-7.77.9-10.86.68-1.24,1.93-2.14,3-3.06,4.19-3.33,5.28-9.23,4.08-14.53l-.05-.19Z"/>
</svg>