<?xml version="1.0" encoding="UTF-8"?>
<svg id="Layer_1" data-name="Layer 1" xmlns="http://www.w3.org/2000/svg" viewBox="0 0 49.77 57.29">
  <defs>
    <style>
      .cls-1 {
        fill: #231f20;
      }
    </style>
  </defs>
  <path class="cls-1" d="M47.67,29.61c-1.6-11.02-3.58-23.6-14.91-28.14l-.18-.07C25.21-1.54,16.01.18,10.85,6.39,3.77,14.56.58,30.22.05,41.98c-.2,5.42-.11,14.24,6.51,15.31,6.34.33,9.79-8.16,10.26-13.96,1.11-5.97-.75-22.43,7.19-23.26,3.04.39,4.9,3.89,6.24,8.09,2.43,7.46,2.02,15.58,4.94,22.79,3.89,9.07,13.34,8.13,14.41-1.79.71-6.48-.99-13.13-1.93-19.55Z"/>
</svg>