<?xml version="1.0" encoding="UTF-8"?>
<svg id="Layer_1" data-name="Layer 1" xmlns="http://www.w3.org/2000/svg" viewBox="0 0 48.59 59.45">
  <defs>
    <style>
      .cls-1 {
        fill: #231f20;
      }
    </style>
  </defs>
  <path class="cls-1" d="M47.72,8.76c-.64-5.55-1.03-7.99-7.26-8.48-8.47-.67-19.01,0-27.54.42C9.42.88,3.42-.23,1.34,3.31.52,4.71.17,8.19.09,9.92c-.44,9.12.87,21.76,1.59,31.1.32,4.21.56,9.29,1.18,13.38.59,3.9,4.15,5.05,4.62,1.88l.48-21.36,5.11.4s-.89,12.62-.38,18.68c.1,1.18.51,4.27,1.4,4.89,3.06,2.13,3.75-2.49,4.05-4.54.68-4.58,1.59-11.35,1.45-15.99-.02-.84-.03-2.72-.03-2.72l3.34-.33s-.11,20.74,0,21.05c.11.32-.09,1.11,1.05,1.79,1.14.68,2.38-.11,2.91-1.37.87-2.05,1.41-8.23,1.54-10.66.1-1.73.37-11.04.37-11.04l3.96-.17s-.84,12.37-.41,18.32c.11,1.52.28,4.25,2.24,4.43,2.02.18,2.65-2.63,2.84-4.1.77-6.07.89-18.78.89-18.78l3.65-.65s.31,7.52.25,11.24c-.04,2.31-1.48,11.02.77,12.2,2.9,1.53,3.66-4.84,3.88-6.37,1.88-12.58,2.29-29.8.83-42.45Z"/>
</svg>