<?xml version="1.0" encoding="UTF-8"?>
<svg id="Layer_1" data-name="Layer 1" xmlns="http://www.w3.org/2000/svg" viewBox="0 0 53.13 52.79">
  <defs>
    <style>
      .cls-1 {
        fill: #231f20;
      }
    </style>
  </defs>
  <path class="cls-1" d="M53.03,30.85c-.48-2.37-4.43-3.45-5.2-4.72-.98-1.93,3.83-3.51,4.3-6.69.19-1.03-.14-2.16-.94-2.85-1.96-1.9-5.63.04-7.33-2.06-1.29-2.05.41-4.91.35-7.11,0-1.62-1.49-2.81-3.05-2.84-2.13-.14-3.96,1.7-5.57,2.17-1.59.43-3.52-.32-4.41-1.68-.95-1.57-1.35-4.1-3.33-4.85-.91-.37-1.99-.29-2.84.19-1.8.98-1.84,3.43-2.99,4.75-1.15,1.3-3.4,2.05-5.01,1.71-1.33-.28-2.37-1.44-3.73-1.74-1.19-.29-2.58.15-3.35,1.12-1.25,1.48-.47,3.76-.3,5.48.16,1.65-.6,3.81-2.5,3.92-1.95.13-5.22-.49-6.56,1.6-.69,1.03-.76,2.45-.22,3.56,1.44,2.82,6.47,3.78,3.99,7.61-1.09,1.34-2.94,2.22-3.68,3.89-.87,1.7.19,3.88,1.93,4.42,1.41.49,2.99.19,4.41.64,1.75.5,2.87,2.24,2.66,4.05-.18,1.95-1.09,4.4.2,5.92.72.9,2,1.36,3.12,1.24,1.36-.11,2.24-1.18,3.31-1.87,1.16-.76,2.38-.51,4.04-.01,1.72.41,3.44.99,4.19,2.62,1.26,2.8,3.94,4.96,6.49,2.11.77-1.01.95-2.47,1.4-3.63.76-1.86,3.85-3.03,5.46-3.22,1.79.07,3.13,1.74,4.99,1.68,1.02.02,2.05-.41,2.64-1.16,2.04-2.49-1.47-6.67-.12-8.7,1.38-1.33,4.99-.27,6.81-2.32.75-.82,1.04-1.97.85-3.06l-.04-.19Z"/>
</svg>